<svg width="24" height="24" viewBox="0 0 24 24" fill="none" xmlns="http://www.w3.org/2000/svg">
<g id="Frame 2112">
<path id="facebook" fill-rule="evenodd" clip-rule="evenodd" d="M0 3.75C0 1.67893 1.67893 0 3.75 0H20.25C22.3211 0 24 1.67893 24 3.75V20.25C24 22.3211 22.3211 24 20.25 24H3.75C1.67893 24 0 22.3211 0 20.25V3.75Z" fill="#333333"/>
<path id="Vector" d="M10.1406 7.51959V9.71211H8.0625H8.0125V9.76211V12.231V12.281H8.0625H10.1406V17.8927V17.9354L10.1828 17.9421C10.6318 18.0132 11.0928 18.05 11.5622 18.05C11.9689 18.05 12.3695 18.0221 12.7611 17.9688L12.8044 17.9629V17.9192V12.281H14.6965H14.7397L14.746 12.2383L15.1114 9.76943L15.1198 9.71211H15.0619H12.8044V7.95036L12.805 7.94978V7.92872C12.805 7.51915 13.1435 7.18523 13.5625 7.18523H15.0625H15.1125V7.13523V5V4.95H15.0625H12.805H12.767H12.755C11.3116 4.95 10.1406 6.0999 10.1406 7.51959Z" fill="#E7F0FA" stroke="#333333" stroke-width="0.1"/>
</g>
</svg>
