<svg width="32" height="32" viewBox="0 0 32 32" fill="none" xmlns="http://www.w3.org/2000/svg">
<g id="Confetti">
<path id="Vector" d="M23 20.6591L2.5 29.4971L11.05 9.66406" fill="#4285F4"/>
<path id="Vector_2" d="M4.44531 24.9882C5.92331 25.9412 7.37431 26.5772 8.65731 26.8472L12.9153 25.0112L12.9233 24.9912C10.9573 24.9772 8.34631 23.8202 5.81831 21.8042L4.44531 24.9882ZM10.9383 17.1392C10.1898 16.3909 9.49601 15.5899 8.86231 14.7422L7.26931 18.4372C7.48631 18.6732 7.70731 18.9082 7.93831 19.1392C10.4863 21.6872 13.3273 23.3482 15.6293 23.8402L19.9193 21.9902C17.4603 21.9722 13.9883 20.1892 10.9383 17.1392Z" fill="#F43121"/>
<path id="Vector_3" d="M10.5 4.5C11.0523 4.5 11.5 4.05228 11.5 3.5C11.5 2.94772 11.0523 2.5 10.5 2.5C9.94772 2.5 9.5 2.94772 9.5 3.5C9.5 4.05228 9.94772 4.5 10.5 4.5Z" fill="#34A853"/>
<path id="Vector_4" d="M16.5 29.5C17.0523 29.5 17.5 29.0523 17.5 28.5C17.5 27.9477 17.0523 27.5 16.5 27.5C15.9477 27.5 15.5 27.9477 15.5 28.5C15.5 29.0523 15.9477 29.5 16.5 29.5Z" fill="#34A853"/>
<path id="Vector_5" d="M4.5 17.5C5.05228 17.5 5.5 17.0523 5.5 16.5C5.5 15.9477 5.05228 15.5 4.5 15.5C3.94772 15.5 3.5 15.9477 3.5 16.5C3.5 17.0523 3.94772 17.5 4.5 17.5Z" fill="#EA4335"/>
<path id="Vector_6" d="M25.5 4.5C26.0523 4.5 26.5 4.05228 26.5 3.5C26.5 2.94772 26.0523 2.5 25.5 2.5C24.9477 2.5 24.5 2.94772 24.5 3.5C24.5 4.05228 24.9477 4.5 25.5 4.5Z" fill="#EA4335"/>
<path id="Vector_7" d="M23.3721 20.3707C24.9084 18.8343 23.5243 14.9594 20.2805 11.7158C17.0367 8.47213 13.1618 7.08809 11.6255 8.62444C10.0892 10.1608 11.4733 14.0357 14.7171 17.2794C17.9608 20.523 21.8358 21.907 23.3721 20.3707Z" fill="#FBBC05"/>
<path id="Vector_8" d="M2.5004 30.0028C2.41748 30.0031 2.33581 29.9826 2.26277 29.9434C2.18973 29.9041 2.12763 29.8473 2.08207 29.778C2.03651 29.7087 2.00893 29.6292 2.00183 29.5466C1.99473 29.464 2.00833 29.3809 2.0414 29.3048L10.5914 9.47184C10.6458 9.35292 10.7445 9.26003 10.8665 9.21306C10.9886 9.16609 11.1241 9.16879 11.2442 9.22058C11.3643 9.27237 11.4592 9.36913 11.5088 9.49012C11.5584 9.61111 11.5586 9.7467 11.5094 9.86784L3.4574 28.5458L22.8024 20.2058C22.9235 20.1566 23.0591 20.1568 23.1801 20.2064C23.3011 20.256 23.3979 20.351 23.4497 20.471C23.5014 20.5911 23.5041 20.7267 23.4572 20.8487C23.4102 20.9707 23.3173 21.0695 23.1984 21.1238L2.6984 29.9618C2.63577 29.9885 2.56846 30.0024 2.5004 30.0028Z" fill="#0A65CC"/>
<path id="Vector_9" d="M21.6196 21.4965C19.5836 21.4965 16.8176 20.0965 14.3586 17.6385C10.8676 14.1465 9.50956 10.0345 11.2676 8.27651C13.0286 6.51551 17.1386 7.87751 20.6296 11.3675C24.1206 14.8595 25.4786 18.9715 23.7206 20.7295C23.2006 21.2495 22.4736 21.4965 21.6196 21.4965ZM13.3876 8.50451C12.7806 8.50451 12.2936 8.66551 11.9756 8.98351C10.8026 10.1565 11.7656 13.6295 15.0666 16.9315C18.3706 20.2335 21.8406 21.1905 23.0146 20.0225C24.1876 18.8495 23.2246 15.3765 19.9236 12.0745C17.5156 9.66751 15.0176 8.50451 13.3876 8.50451Z" fill="#0A65CC"/>
<path id="Vector_10" d="M2.5004 30.0028C2.41748 30.0031 2.33581 29.9826 2.26277 29.9434C2.18973 29.9041 2.12763 29.8473 2.08207 29.778C2.03651 29.7087 2.00893 29.6292 2.00183 29.5466C1.99473 29.464 2.00833 29.3809 2.0414 29.3048L10.5914 9.47184C10.6458 9.35292 10.7445 9.26003 10.8665 9.21306C10.9886 9.16609 11.1241 9.16879 11.2442 9.22058C11.3643 9.27237 11.4592 9.36913 11.5088 9.49012C11.5584 9.61111 11.5586 9.7467 11.5094 9.86784L3.4574 28.5458L22.8024 20.2058C22.9235 20.1566 23.0591 20.1568 23.1801 20.2064C23.3011 20.256 23.3979 20.351 23.4497 20.471C23.5014 20.5911 23.5041 20.7267 23.4572 20.8487C23.4102 20.9707 23.3173 21.0695 23.1984 21.1238L2.6984 29.9618C2.63577 29.9885 2.56846 30.0024 2.5004 30.0028Z" fill="#0A65CC"/>
<path id="Vector_11" d="M8.65718 27.3435C8.62224 27.3432 8.58741 27.3395 8.55318 27.3325C7.20318 27.0485 5.69018 26.3815 4.17418 25.4035C4.07467 25.3395 4.00113 25.2422 3.96669 25.129C3.93226 25.0158 3.93917 24.8941 3.98618 24.7855L5.35918 21.6015C5.39003 21.5312 5.43656 21.469 5.49522 21.4195C5.55387 21.37 5.62308 21.3347 5.69754 21.3161C5.77199 21.2976 5.8497 21.2964 5.9247 21.3126C5.9997 21.3287 6.07 21.3619 6.13018 21.4095C8.52918 23.3225 11.0702 24.4735 12.9272 24.4875C13.0044 24.4878 13.0805 24.506 13.1494 24.5408C13.2183 24.5755 13.2783 24.6258 13.3244 24.6877C13.3706 24.7496 13.4017 24.8213 13.4154 24.8973C13.4291 24.9733 13.4249 25.0514 13.4032 25.1255C13.3817 25.1996 13.3448 25.2683 13.2948 25.3271C13.2448 25.3859 13.1829 25.4334 13.1132 25.4665L8.85518 27.3025C8.79265 27.3294 8.72528 27.3434 8.65718 27.3435ZM5.07418 24.7885C6.30718 25.5415 7.51818 26.0675 8.60718 26.3195L11.1322 25.2305C9.54518 24.8135 7.77318 23.9025 6.02218 22.5895L5.07418 24.7885ZM15.6302 24.3365C15.5952 24.3363 15.5604 24.3327 15.5262 24.3255C13.0162 23.7885 10.1232 22.0255 7.58718 19.4885C7.35346 19.2544 7.12506 19.015 6.90218 18.7705C6.83682 18.6995 6.79343 18.6111 6.77728 18.516C6.76113 18.4208 6.7729 18.3231 6.81118 18.2345L8.40418 14.5405C8.43889 14.4601 8.49412 14.3901 8.56435 14.3378C8.63457 14.2854 8.71732 14.2524 8.80431 14.2421C8.8913 14.2317 8.97947 14.2445 9.06001 14.2789C9.14054 14.3134 9.21061 14.3684 9.26318 14.4385C9.88329 15.2668 10.5617 16.0497 11.2932 16.7815C14.1322 19.6215 17.5202 21.4685 19.9242 21.4865C20.0389 21.4875 20.1497 21.5278 20.2381 21.6008C20.3266 21.6738 20.3873 21.7749 20.41 21.8873C20.4327 21.9997 20.4162 22.1165 20.363 22.2181C20.3099 22.3197 20.2235 22.4 20.1182 22.4455L15.8282 24.2955C15.7656 24.3224 15.6983 24.3363 15.6302 24.3365ZM7.85718 18.3315C7.99918 18.4825 8.14318 18.6325 8.29218 18.7805C10.6082 21.0975 13.3192 22.7815 15.5812 23.3125L18.1022 22.2255C15.7332 21.6045 13.0002 19.9025 10.5862 17.4885C10.022 16.9253 9.48829 16.3324 8.98719 15.7125L7.85718 18.3315ZM27.6752 18.8225C27.5425 18.8225 27.4153 18.77 27.3212 18.6765C25.2542 16.6105 21.8132 16.4265 18.7582 18.2225C18.7016 18.2559 18.639 18.2779 18.574 18.287C18.5089 18.2962 18.4427 18.2924 18.3791 18.2759C18.3156 18.2593 18.2559 18.2303 18.2035 18.1906C18.1512 18.1509 18.1072 18.1013 18.0742 18.0445C18.0407 17.9879 18.0188 17.9253 18.0096 17.8603C18.0005 17.7952 18.0043 17.729 18.0208 17.6654C18.0374 17.6019 18.0663 17.5422 18.106 17.4898C18.1457 17.4375 18.1954 17.3935 18.2522 17.3605C21.7062 15.3285 25.6362 15.5755 28.0282 17.9685C28.0982 18.0384 28.146 18.1274 28.1654 18.2244C28.1848 18.3215 28.175 18.422 28.1372 18.5135C28.0994 18.6049 28.0353 18.6831 27.9531 18.7381C27.8708 18.7931 27.7741 18.8225 27.6752 18.8225ZM17.6652 14.0025C17.5666 14.0027 17.4702 13.9737 17.3881 13.9193C17.3059 13.8649 17.2417 13.7874 17.2035 13.6966C17.1652 13.6057 17.1546 13.5056 17.1731 13.4088C17.1916 13.312 17.2382 13.2229 17.3072 13.1525C18.3612 12.0765 19.1532 10.7855 19.5972 9.42048C20.1312 7.77748 20.1302 6.08948 19.5952 4.66548C19.5721 4.60402 19.5613 4.53861 19.5635 4.47299C19.5656 4.40736 19.5807 4.34281 19.6078 4.28301C19.6626 4.16223 19.7631 4.06816 19.8872 4.02148C20.0113 3.9748 20.1489 3.97934 20.2697 4.0341C20.3904 4.08886 20.4845 4.18936 20.5312 4.31348C21.1462 5.94848 21.1532 7.87248 20.5492 9.72848C20.0572 11.2415 19.1842 12.6665 18.0232 13.8515C17.9767 13.8994 17.9211 13.9375 17.8596 13.9634C17.798 13.9894 17.7319 14.0026 17.6652 14.0025ZM12.9472 15.7025C12.85 15.7033 12.7547 15.6757 12.673 15.623C12.5913 15.5703 12.5268 15.4949 12.4875 15.406C12.4482 15.3172 12.4357 15.2187 12.4516 15.1229C12.4676 15.027 12.5112 14.9379 12.5772 14.8665C15.4932 11.6515 15.8212 7.17548 13.3222 4.67548C13.2311 4.58118 13.1807 4.45488 13.1818 4.32378C13.183 4.19268 13.2356 4.06728 13.3283 3.97457C13.421 3.88187 13.5464 3.82928 13.6775 3.82814C13.8086 3.827 13.9349 3.8774 14.0292 3.96848C16.9052 6.84548 16.5922 11.9285 13.3172 15.5385C13.2703 15.5901 13.2132 15.6313 13.1495 15.6596C13.0858 15.6878 13.0169 15.7024 12.9472 15.7025ZM4.28918 10.8965C4.04618 10.8965 3.79918 10.8345 3.57318 10.7045C3.51586 10.6719 3.46555 10.6283 3.42515 10.5762C3.38475 10.5241 3.35506 10.4645 3.33778 10.4008C3.3205 10.3372 3.31598 10.2708 3.32448 10.2054C3.33298 10.14 3.35433 10.0769 3.3873 10.0198C3.42027 9.96271 3.46421 9.91269 3.5166 9.87264C3.56898 9.83258 3.62876 9.80329 3.69251 9.78643C3.75626 9.76958 3.82272 9.7655 3.88805 9.77443C3.95338 9.78336 4.0163 9.80513 4.07318 9.83848C4.17303 9.8889 4.28838 9.89921 4.39558 9.8673C4.50278 9.83539 4.59372 9.76367 4.64973 9.66686C4.70575 9.57004 4.72261 9.45547 4.69684 9.34662C4.67108 9.23778 4.60466 9.14291 4.51118 9.08148C4.45413 9.04884 4.4041 9.00423 4.36398 8.95216C4.32386 8.90009 4.29444 8.84059 4.27743 8.7771C4.26042 8.7136 4.25614 8.64737 4.26485 8.58221C4.27357 8.51706 4.29509 8.45428 4.32818 8.39748C4.39468 8.28285 4.50388 8.19923 4.63189 8.16493C4.7599 8.13063 4.89628 8.14845 5.01118 8.21448C5.51618 8.50448 6.16818 8.33248 6.46318 7.82548C6.60324 7.58104 6.64083 7.2911 6.56775 7.01902C6.49467 6.74694 6.31686 6.51485 6.07318 6.37348C5.96238 6.30512 5.88261 6.19623 5.85084 6.06996C5.81907 5.9437 5.8378 5.81002 5.90305 5.69736C5.96831 5.58469 6.07494 5.50192 6.20027 5.46665C6.3256 5.43138 6.45975 5.44639 6.57418 5.50848C7.04699 5.78299 7.39179 6.23364 7.53311 6.76178C7.67442 7.28992 7.60074 7.85254 7.32818 8.32648C7.16284 8.61324 6.93083 8.85594 6.65179 9.03402C6.37275 9.21209 6.05491 9.3203 5.72518 9.34948C5.74144 9.54738 5.7163 9.74649 5.65136 9.93414C5.58643 10.1218 5.48313 10.2939 5.34805 10.4394C5.21296 10.5849 5.04904 10.7007 4.86674 10.7794C4.68444 10.8581 4.48774 10.898 4.28918 10.8965ZM21.8732 27.8425C21.7983 27.8427 21.7243 27.826 21.6568 27.7936C21.5892 27.7612 21.5299 27.714 21.4832 27.6555C21.1372 27.2255 20.9802 26.6875 21.0402 26.1395C21.1002 25.5915 21.3682 25.1005 21.7992 24.7555C22.0089 24.5835 22.2512 24.4557 22.5115 24.3795C22.7718 24.3034 23.0448 24.2806 23.3142 24.3125C23.4332 24.3255 23.5502 24.3485 23.6642 24.3805C23.7442 24.1115 23.9042 23.8635 24.1392 23.6755C24.4366 23.4373 24.8163 23.3267 25.1951 23.3679C25.5739 23.4092 25.921 23.5989 26.1602 23.8955C26.2425 23.9989 26.2805 24.1306 26.2659 24.2619C26.2514 24.3933 26.1854 24.5135 26.0825 24.5964C25.9795 24.6792 25.848 24.7179 25.7166 24.7041C25.5852 24.6903 25.4646 24.625 25.3812 24.5225C25.3065 24.4386 25.2024 24.3866 25.0905 24.3772C24.9785 24.3679 24.8672 24.4019 24.7797 24.4722C24.6921 24.5426 24.6349 24.6439 24.6199 24.7553C24.6049 24.8666 24.6333 24.9795 24.6992 25.0705C24.7403 25.1216 24.7709 25.1814 24.7893 25.2444C24.8077 25.3073 24.8135 25.3733 24.8064 25.4386C24.7993 25.5038 24.7794 25.567 24.7479 25.6246C24.7164 25.6821 24.6738 25.7329 24.6227 25.774C24.5715 25.8151 24.5128 25.8457 24.4498 25.8641C24.3868 25.8825 24.3208 25.8883 24.2556 25.8812C24.1904 25.8741 24.1272 25.8542 24.0696 25.8227C24.0121 25.7912 23.9613 25.7486 23.9202 25.6975V25.6965C23.8331 25.5873 23.7253 25.4965 23.6029 25.4293C23.4805 25.3621 23.3461 25.3197 23.2072 25.3048C23.0684 25.2898 22.928 25.3025 22.7941 25.3421C22.6602 25.3817 22.5355 25.4474 22.4272 25.5355C22.2052 25.7135 22.0672 25.9665 22.0362 26.2485C22.0052 26.5305 22.0872 26.8075 22.2652 27.0285C22.3246 27.1021 22.3619 27.1911 22.3728 27.2851C22.3836 27.379 22.3676 27.4742 22.3266 27.5594C22.2855 27.6447 22.2211 27.7165 22.1409 27.7666C22.0606 27.8167 21.9678 27.843 21.8732 27.8425ZM25.6462 10.6435C25.2622 10.6435 24.8772 10.4975 24.5852 10.2055C24.4941 10.1112 24.4437 9.98488 24.4448 9.85378C24.446 9.72268 24.4986 9.59728 24.5913 9.50457C24.684 9.41187 24.8094 9.35928 24.9405 9.35814C25.0716 9.35701 25.1979 9.4074 25.2922 9.49848C25.3865 9.58956 25.5128 9.63996 25.6439 9.63882C25.775 9.63768 25.9004 9.58509 25.9931 9.49239C26.0858 9.39969 26.1384 9.27428 26.1395 9.14318C26.1407 9.01208 26.0903 8.88578 25.9992 8.79148C25.9081 8.69718 25.8577 8.57088 25.8588 8.43978C25.86 8.30868 25.9126 8.18328 26.0053 8.09057C26.098 7.99787 26.2234 7.94528 26.3545 7.94414C26.4856 7.943 26.6119 7.9934 26.7062 8.08448C26.9519 8.08529 27.1937 8.1466 27.4102 8.26299C27.6267 8.37938 27.8111 8.54727 27.9473 8.75185C28.0835 8.95642 28.1673 9.19138 28.1912 9.43598C28.215 9.68058 28.1783 9.9273 28.0843 10.1544C27.9902 10.3814 27.8417 10.5818 27.6519 10.7379C27.462 10.894 27.2367 11.0009 26.9957 11.0492C26.7547 11.0976 26.5056 11.0858 26.2702 11.0151C26.0349 10.9443 25.8205 10.8167 25.6462 10.6435Z" fill="#0A65CC"/>
<path id="Vector_12" d="M27.061 9.231C26.677 9.231 26.292 9.085 26 8.793C25.9089 8.6987 25.8585 8.5724 25.8597 8.4413C25.8608 8.3102 25.9134 8.18479 26.0061 8.09209C26.0988 7.99939 26.2242 7.9468 26.3553 7.94566C26.4864 7.94452 26.6127 7.99492 26.707 8.086C26.8013 8.17708 26.9276 8.22748 27.0587 8.22634C27.1898 8.2252 27.3152 8.17261 27.4079 8.07991C27.5006 7.98721 27.5532 7.8618 27.5543 7.7307C27.5555 7.5996 27.5051 7.4733 27.414 7.379C27.3229 7.2847 27.2725 7.1584 27.2737 7.0273C27.2748 6.8962 27.3274 6.77079 27.4201 6.67809C27.5128 6.58539 27.6382 6.5328 27.7693 6.53166C27.9004 6.53052 28.0267 6.58092 28.121 6.672C28.402 6.95342 28.5598 7.33483 28.5598 7.7325C28.5598 8.13017 28.402 8.51158 28.121 8.793C27.9818 8.93214 27.8165 9.04246 27.6346 9.11762C27.4527 9.19278 27.2578 9.23131 27.061 9.231ZM24.232 12.06C23.848 12.06 23.463 11.914 23.171 11.622C23.0799 11.5277 23.0295 11.4014 23.0307 11.2703C23.0318 11.1392 23.0844 11.0138 23.1771 10.9211C23.2698 10.8284 23.3952 10.7758 23.5263 10.7747C23.6574 10.7735 23.7837 10.8239 23.878 10.915C23.9723 11.0061 24.0986 11.0565 24.2297 11.0553C24.3608 11.0542 24.4862 11.0016 24.5789 10.9089C24.6716 10.8162 24.7242 10.6908 24.7253 10.5597C24.7265 10.4286 24.6761 10.3023 24.585 10.208C24.4939 10.1137 24.4435 9.9874 24.4447 9.8563C24.4458 9.7252 24.4984 9.59979 24.5911 9.50709C24.6838 9.41439 24.8092 9.3618 24.9403 9.36066C25.0714 9.35952 25.1977 9.40992 25.292 9.501C25.5378 9.50181 25.7795 9.56312 25.996 9.67951C26.2125 9.7959 26.3969 9.96379 26.5331 10.1684C26.6693 10.3729 26.7531 10.6079 26.777 10.8525C26.8009 11.0971 26.7642 11.3438 26.6701 11.5709C26.576 11.7979 26.4275 11.9983 26.2377 12.1544C26.0478 12.3105 25.8225 12.4174 25.5815 12.4657C25.3405 12.5141 25.0914 12.5024 24.856 12.4316C24.6207 12.3608 24.4064 12.2332 24.232 12.06ZM4.5 18C3.673 18 3 17.327 3 16.5C3 15.673 3.673 15 4.5 15C5.327 15 6 15.673 6 16.5C6 17.327 5.327 18 4.5 18ZM4.5 16C4.225 16 4 16.225 4 16.5C4 16.775 4.225 17 4.5 17C4.775 17 5 16.775 5 16.5C5 16.225 4.775 16 4.5 16ZM25.5 5C24.673 5 24 4.327 24 3.5C24 2.673 24.673 2 25.5 2C26.327 2 27 2.673 27 3.5C27 4.327 26.327 5 25.5 5ZM25.5 3C25.225 3 25 3.225 25 3.5C25 3.775 25.225 4 25.5 4C25.775 4 26 3.775 26 3.5C26 3.225 25.775 3 25.5 3ZM10.5 5C9.673 5 9 4.327 9 3.5C9 2.673 9.673 2 10.5 2C11.327 2 12 2.673 12 3.5C12 4.327 11.327 5 10.5 5ZM10.5 3C10.225 3 10 3.225 10 3.5C10 3.775 10.225 4 10.5 4C10.775 4 11 3.775 11 3.5C11 3.225 10.775 3 10.5 3ZM16.5 30C15.673 30 15 29.327 15 28.5C15 27.673 15.673 27 16.5 27C17.327 27 18 27.673 18 28.5C18 29.327 17.327 30 16.5 30ZM16.5 28C16.225 28 16 28.225 16 28.5C16 28.775 16.225 29 16.5 29C16.775 29 17 28.775 17 28.5C17 28.225 16.775 28 16.5 28Z" fill="#0A65CC"/>
</g>
</svg>
