<svg width="24" height="24" viewBox="0 0 24 24" fill="none" xmlns="http://www.w3.org/2000/svg">
<g id="Download">
<path id="Vector" d="M14.2906 17.2923L13.0006 18.5923V13.0023C13.0006 12.7371 12.8953 12.4828 12.7077 12.2952C12.5202 12.1077 12.2658 12.0023 12.0006 12.0023C11.7354 12.0023 11.4811 12.1077 11.2935 12.2952C11.106 12.4828 11.0006 12.7371 11.0006 13.0023V18.5923L9.71062 17.2923C9.61738 17.1991 9.50669 17.1251 9.38487 17.0747C9.26305 17.0242 9.13248 16.9982 9.00062 16.9982C8.86876 16.9982 8.7382 17.0242 8.61637 17.0747C8.49455 17.1251 8.38386 17.1991 8.29062 17.2923C8.19738 17.3856 8.12342 17.4963 8.07296 17.6181C8.0225 17.7399 7.99653 17.8705 7.99653 18.0023C7.99653 18.1342 8.0225 18.2648 8.07296 18.3866C8.12342 18.5084 8.19738 18.6191 8.29062 18.7123L11.2906 21.7123C11.3857 21.8034 11.4979 21.8747 11.6206 21.9223C11.7403 21.9752 11.8698 22.0026 12.0006 22.0026C12.1315 22.0026 12.2609 21.9752 12.3806 21.9223C12.5034 21.8747 12.6155 21.8034 12.7106 21.7123L15.7106 18.7123C15.8989 18.524 16.0047 18.2686 16.0047 18.0023C16.0047 17.736 15.8989 17.4806 15.7106 17.2923C15.5223 17.104 15.2669 16.9982 15.0006 16.9982C14.7343 16.9982 14.4789 17.104 14.2906 17.2923ZM18.4206 6.22234C17.8096 4.81834 16.7551 3.65341 15.4187 2.90606C14.0823 2.15871 12.5377 1.87017 11.0216 2.08465C9.5055 2.29912 8.10155 3.00479 7.02488 4.09351C5.94821 5.18223 5.25821 6.59395 5.06062 8.11234C4.10721 8.34066 3.27084 8.91117 2.71036 9.71553C2.14988 10.5199 1.90431 11.5021 2.02029 12.4756C2.13627 13.449 2.60572 14.346 3.33949 14.9962C4.07326 15.6464 5.02025 16.0044 6.00062 16.0023C6.26584 16.0023 6.52019 15.897 6.70773 15.7094C6.89527 15.5219 7.00062 15.2676 7.00062 15.0023C7.00062 14.7371 6.89527 14.4828 6.70773 14.2952C6.52019 14.1077 6.26584 14.0023 6.00062 14.0023C5.47019 14.0023 4.96148 13.7916 4.58641 13.4165C4.21134 13.0415 4.00062 12.5328 4.00062 12.0023C4.00062 11.4719 4.21134 10.9632 4.58641 10.5881C4.96148 10.2131 5.47019 10.0023 6.00062 10.0023C6.26584 10.0023 6.52019 9.89698 6.70773 9.70944C6.89527 9.52191 7.00062 9.26755 7.00062 9.00234C7.00318 7.81961 7.42491 6.67609 8.19089 5.77492C8.95688 4.87375 10.0175 4.27329 11.1844 4.08021C12.3512 3.88713 13.5488 4.11394 14.5642 4.72034C15.5796 5.32675 16.3472 6.27348 16.7306 7.39234C16.7878 7.56418 16.8905 7.71727 17.0279 7.83527C17.1653 7.95327 17.3321 8.03175 17.5106 8.06234C18.1767 8.18821 18.7805 8.53594 19.2236 9.04887C19.6668 9.5618 19.9232 10.2097 19.951 10.887C19.9789 11.5643 19.7765 12.231 19.3769 12.7786C18.9774 13.3261 18.4041 13.7222 17.7506 13.9023C17.6232 13.9352 17.5036 13.9928 17.3984 14.0718C17.2933 14.1509 17.2048 14.2499 17.138 14.3632C17.0711 14.4765 17.0272 14.6019 17.0088 14.7321C16.9904 14.8624 16.9978 14.995 17.0306 15.1223C17.0635 15.2497 17.1211 15.3694 17.2001 15.4745C17.2792 15.5796 17.3782 15.6681 17.4915 15.735C17.6048 15.8019 17.7301 15.8458 17.8604 15.8642C17.9906 15.8826 18.1232 15.8752 18.2506 15.8423C19.303 15.5642 20.2359 14.9503 20.9076 14.0938C21.5794 13.2373 21.9532 12.1849 21.9725 11.0966C21.9917 10.0083 21.6552 8.94338 21.0142 8.06366C20.3731 7.18393 19.4625 6.53743 18.4206 6.22234Z" fill="#0A65CC"/>
</g>
</svg>
