<svg width="41" height="27" viewBox="0 0 41 27" fill="none" xmlns="http://www.w3.org/2000/svg">
<path d="M26.093 24.9952C23.8198 24.9955 21.5975 24.3217 19.7072 23.0591C17.8169 21.7964 16.3435 20.0016 15.4732 17.9015C14.603 15.8014 14.375 13.4905 14.8182 11.2609C15.2613 9.03124 16.3557 6.9831 17.9629 5.37544C19.5701 3.76779 21.6179 2.67282 23.8473 2.229C26.0768 1.78518 28.3879 2.01245 30.4882 2.88207C32.5885 3.75168 34.3838 5.22459 35.647 7.11453C36.9102 9.00446 37.5847 11.2265 37.585 13.4998V13.5015C37.5818 16.5485 36.3701 19.4699 34.2157 21.6246C32.0613 23.7794 29.1401 24.9915 26.093 24.9952Z" fill="#EA4335"/>
<path d="M14.9077 24.9952C12.6345 24.9952 10.4123 24.3211 8.5222 23.0581C6.63207 21.7952 5.1589 20.0001 4.28897 17.8999C3.41904 15.7997 3.19143 13.4887 3.63492 11.2592C4.0784 9.02963 5.17307 6.98165 6.78048 5.37423C8.3879 3.76682 10.4359 2.67215 12.6654 2.22867C14.895 1.78518 17.206 2.01279 19.3062 2.88272C21.4064 3.75265 23.2014 5.22582 24.4644 7.11594C25.7273 9.00607 26.4014 11.2283 26.4014 13.5015C26.3982 16.5488 25.1863 19.4704 23.0315 21.6252C20.8767 23.78 17.9551 24.992 14.9077 24.9952Z" fill="#4285F4"/>
</svg>
