<svg width="16" height="12" viewBox="0 0 16 12" fill="none" xmlns="http://www.w3.org/2000/svg">
<path d="M0.5 0.997396C0.5 0.776382 0.587797 0.564421 0.744078 0.40814C0.900358 0.25186 1.11232 0.164062 1.33333 0.164063H14.6667C14.8877 0.164063 15.0996 0.25186 15.2559 0.40814C15.4122 0.564421 15.5 0.776382 15.5 0.997396C15.5 1.21841 15.4122 1.43037 15.2559 1.58665C15.0996 1.74293 14.8877 1.83073 14.6667 1.83073H1.33333C1.11232 1.83073 0.900358 1.74293 0.744078 1.58665C0.587797 1.43037 0.5 1.21841 0.5 0.997396ZM0.5 5.9974C0.5 5.77638 0.587797 5.56442 0.744078 5.40814C0.900358 5.25186 1.11232 5.16406 1.33333 5.16406H14.6667C14.8877 5.16406 15.0996 5.25186 15.2559 5.40814C15.4122 5.56442 15.5 5.77638 15.5 5.9974C15.5 6.21841 15.4122 6.43037 15.2559 6.58665C15.0996 6.74293 14.8877 6.83073 14.6667 6.83073H1.33333C1.11232 6.83073 0.900358 6.74293 0.744078 6.58665C0.587797 6.43037 0.5 6.21841 0.5 5.9974ZM1.33333 10.1641C1.11232 10.1641 0.900358 10.2519 0.744078 10.4081C0.587797 10.5644 0.5 10.7764 0.5 10.9974C0.5 11.2184 0.587797 11.4304 0.744078 11.5867C0.900358 11.7429 1.11232 11.8307 1.33333 11.8307H14.6667C14.8877 11.8307 15.0996 11.7429 15.2559 11.5867C15.4122 11.4304 15.5 11.2184 15.5 10.9974C15.5 10.7764 15.4122 10.5644 15.2559 10.4081C15.0996 10.2519 14.8877 10.1641 14.6667 10.1641H1.33333Z" fill="#333333"/>
</svg>
