<svg width="56" height="18" viewBox="0 0 56 18" fill="none" xmlns="http://www.w3.org/2000/svg">
<path d="M43.0477 3.60156H40.0727C39.8977 3.60156 39.7227 3.77299 39.6352 3.94442L38.4102 11.4873C38.4102 11.6587 38.4977 11.7444 38.6727 11.7444H40.2477C40.4227 11.7444 40.5102 11.6587 40.5102 11.4873L40.8602 9.34442C40.8602 9.17299 41.0352 9.00156 41.2977 9.00156H42.2602C44.2727 9.00156 45.4102 8.05871 45.6727 6.17299C45.8477 5.40156 45.6727 4.71585 45.3227 4.28728C44.7977 3.8587 44.0102 3.60156 43.0477 3.60156ZM43.3977 6.43013C43.2227 7.4587 42.4352 7.45871 41.6477 7.45871H41.1227L41.4727 5.48728C41.4727 5.40156 41.5602 5.31585 41.7352 5.31585H41.9102C42.4352 5.31585 42.9602 5.31585 43.2227 5.65871C43.3977 5.74442 43.3977 6.00156 43.3977 6.43013Z" fill="#4285F4"/>
<path d="M21.6102 3.60156H18.6352C18.4602 3.60156 18.2852 3.77299 18.1977 3.94442L16.9727 11.4873C16.9727 11.6587 17.0602 11.7444 17.2352 11.7444H18.6352C18.8102 11.7444 18.9852 11.573 19.0727 11.4016L19.4227 9.34442C19.4227 9.17299 19.5977 9.00156 19.8602 9.00156H20.8227C22.8352 9.00156 23.9727 8.05871 24.2352 6.17299C24.4102 5.40156 24.2352 4.71585 23.8852 4.28728C23.3602 3.8587 22.6602 3.60156 21.6102 3.60156ZM21.9602 6.43013C21.7852 7.4587 20.9977 7.45871 20.2102 7.45871H19.7727L20.1227 5.48728C20.1227 5.40156 20.2102 5.31585 20.3852 5.31585H20.5602C21.0852 5.31585 21.6102 5.31585 21.8727 5.6587C21.9602 5.74442 22.0477 6.00156 21.9602 6.43013ZM30.6227 6.34442H29.2227C29.1352 6.34442 28.9602 6.43013 28.9602 6.51585L28.8727 6.94442L28.7852 6.77299C28.4352 6.34442 27.8227 6.17299 27.1227 6.17299C25.5477 6.17299 24.1477 7.37299 23.8852 9.00156C23.7102 9.8587 23.9727 10.6301 24.4102 11.1444C24.8477 11.6587 25.4602 11.8301 26.2477 11.8301C27.5602 11.8301 28.2602 11.0587 28.2602 11.0587L28.1727 11.4873C28.1727 11.6587 28.2602 11.7444 28.4352 11.7444H29.7477C29.9227 11.7444 30.0977 11.573 30.1852 11.4016L30.9727 6.60156C30.8852 6.51585 30.7102 6.34442 30.6227 6.34442ZM28.6102 9.08728C28.4352 9.8587 27.8227 10.4587 26.9477 10.4587C26.5102 10.4587 26.1602 10.2873 25.9852 10.1158C25.8102 9.8587 25.7227 9.51585 25.7227 9.08728C25.8102 8.31585 26.5102 7.71585 27.2977 7.71585C27.7352 7.71585 27.9977 7.88728 28.2602 8.05871C28.5227 8.31585 28.6102 8.74442 28.6102 9.08728Z" fill="#34A853"/>
<path d="M51.9759 6.3433H50.5759C50.4884 6.3433 50.3134 6.42902 50.3134 6.51473L50.2259 6.9433L50.1384 6.77187C49.7884 6.3433 49.1759 6.17188 48.4759 6.17188C46.9009 6.17188 45.5009 7.37187 45.2384 9.00045C45.0634 9.85759 45.3259 10.629 45.7634 11.1433C46.2009 11.6576 46.8134 11.829 47.6009 11.829C48.9134 11.829 49.6134 11.0576 49.6134 11.0576L49.5259 11.4862C49.5259 11.6576 49.6134 11.7433 49.7884 11.7433H51.1009C51.2759 11.7433 51.4509 11.5719 51.5384 11.4004L52.3259 6.60045C52.2384 6.51473 52.1509 6.3433 51.9759 6.3433ZM49.9634 9.08616C49.7884 9.85759 49.1759 10.4576 48.3009 10.4576C47.8634 10.4576 47.5134 10.2862 47.3384 10.1147C47.1634 9.85759 47.0759 9.51473 47.0759 9.08616C47.1634 8.31473 47.8634 7.71473 48.6509 7.71473C49.0884 7.71473 49.3509 7.88616 49.6134 8.05759C49.9634 8.31473 50.0509 8.7433 49.9634 9.08616Z" fill="#4285F4"/>
<path d="M38.2375 6.34375H36.75C36.575 6.34375 36.4875 6.42946 36.4 6.51518L34.475 9.42946L33.6 6.68661C33.5125 6.51518 33.425 6.42946 33.1625 6.42946H31.7625C31.5875 6.42946 31.5 6.60089 31.5 6.77232L33.075 11.3152L31.5875 13.3723C31.5 13.5437 31.5875 13.8009 31.7625 13.8009H33.1625C33.3375 13.8009 33.425 13.7152 33.5125 13.6295L38.325 6.85804C38.5875 6.60089 38.4125 6.34375 38.2375 6.34375Z" fill="#34A853"/>
<path d="M53.6352 3.85349L52.4102 11.5678C52.4102 11.7392 52.4977 11.8249 52.6727 11.8249H53.8977C54.0727 11.8249 54.2477 11.6535 54.3352 11.4821L55.5602 3.93921C55.5602 3.76778 55.4727 3.68206 55.2977 3.68206H53.8977C53.8102 3.59635 53.7227 3.68206 53.6352 3.85349Z" fill="#4285F4"/>
<path d="M10.5 1.02857C9.8875 0.342858 8.75 0 7.175 0H2.8C2.5375 0 2.275 0.257143 2.1875 0.514286L0.4375 11.7429C0.4375 12 0.6125 12.1714 0.7875 12.1714H3.5L4.2 7.97143V8.14286C4.2875 7.88571 4.55 7.62857 4.8125 7.62857H6.125C8.6625 7.62857 10.5875 6.6 11.2 3.77143V3.51429C11.1125 3.51429 11.1125 3.51429 11.2 3.51429C11.2875 2.4 11.1125 1.71429 10.5 1.02857Z" fill="#34A853"/>
<path d="M11.1133 3.51562V3.77277C10.5008 6.68705 8.57578 7.62991 6.03828 7.62991H4.72578C4.46328 7.62991 4.20078 7.88705 4.11328 8.1442L3.23828 13.3728C3.23828 13.5442 3.32578 13.7156 3.58828 13.7156H5.86328C6.12578 13.7156 6.38828 13.5442 6.38828 13.2871V13.2013L6.82578 10.5442V10.3728C6.82578 10.1156 7.08828 9.94419 7.35078 9.94419H7.70078C9.88828 9.94419 11.6383 9.08705 12.0758 6.51562C12.2508 5.48705 12.1633 4.5442 11.6383 3.9442C11.5508 3.77277 11.3758 3.60134 11.1133 3.51562Z" fill="#4285F4"/>
<path d="M10.4992 3.25714C10.4117 3.25714 10.3242 3.17143 10.2367 3.17143C10.1492 3.17143 10.0617 3.17143 9.97422 3.08571C9.62422 3 9.27422 3 8.83672 3H5.42422C5.33672 3 5.24922 3 5.16172 3.08571C4.98672 3.17143 4.89922 3.34286 4.89922 3.51429L4.19922 7.97143V8.14286C4.28672 7.88571 4.54922 7.62857 4.81172 7.62857H6.12422C8.66172 7.62857 10.5867 6.6 11.1992 3.77143C11.1992 3.68571 11.1992 3.6 11.2867 3.51429C11.1117 3.42857 11.0242 3.34286 10.8492 3.34286C10.5867 3.25714 10.5867 3.25714 10.4992 3.25714Z" fill="#EA4335"/>
</svg>
