<svg width="32" height="32" viewBox="0 0 32 32" fill="none" xmlns="http://www.w3.org/2000/svg">
<g id="Pdf">
<path id="Vector" d="M13.9629 21.4251C13.8067 21.2213 13.6072 21.0546 13.3789 20.9371C13.1439 20.8146 12.8639 20.7531 12.5389 20.7531C12.2959 20.7504 12.0553 20.8024 11.8349 20.9051C11.6214 21.0066 11.4454 21.1691 11.3069 21.3936H11.2909V20.8651H10.2109V26.4496H11.3474V24.4891H11.3634C11.5019 24.6921 11.6794 24.8456 11.8954 24.9496C12.1114 25.0531 12.3474 25.1056 12.6034 25.1056C12.9074 25.1056 13.1729 25.0471 13.3994 24.9296C13.6259 24.8121 13.8154 24.6546 13.9674 24.4576C14.1225 24.2543 14.2378 24.0236 14.3074 23.7776C14.3826 23.5176 14.4203 23.2482 14.4194 22.9776C14.4194 22.6841 14.3819 22.4031 14.3074 22.1336C14.2389 21.8776 14.122 21.6371 13.9629 21.4251ZM13.2349 23.4331C13.2029 23.5926 13.1479 23.7331 13.0709 23.8531C12.9934 23.9731 12.8924 24.0706 12.7669 24.1451C12.6414 24.2196 12.4854 24.2571 12.2989 24.2571C12.1174 24.2571 11.9629 24.2201 11.8349 24.1451C11.7103 24.0738 11.6047 23.9737 11.5269 23.8531C11.446 23.7244 11.3891 23.5821 11.3589 23.4331C11.3241 23.2726 11.3066 23.1088 11.3069 22.9446C11.3069 22.7741 11.3229 22.6086 11.3549 22.4491C11.3869 22.2891 11.4414 22.1476 11.5189 22.0246C11.5959 21.9021 11.6974 21.8021 11.8229 21.7246C11.9479 21.6476 12.1039 21.6086 12.2909 21.6086C12.4724 21.6086 12.6254 21.6476 12.7509 21.7246C12.8764 21.8016 12.9789 21.9031 13.0589 22.0281C13.1389 22.1536 13.1959 22.2961 13.2309 22.4561C13.2654 22.6161 13.2829 22.7786 13.2829 22.9441C13.2829 23.1106 13.2669 23.2731 13.2349 23.4331ZM15.9549 20.9331C15.7254 21.0526 15.5349 21.2121 15.3829 21.4091C15.2272 21.6138 15.1105 21.8455 15.0389 22.0926C14.9612 22.3535 14.9222 22.6243 14.9229 22.8966C14.9229 23.1846 14.9614 23.4621 15.0389 23.7286C15.1159 23.9951 15.2309 24.2316 15.3829 24.4366C15.5349 24.6421 15.7279 24.8046 15.9629 24.9246C16.1974 25.0446 16.4699 25.1046 16.7789 25.1046C17.0308 25.1086 17.2805 25.0581 17.5109 24.9566C17.7269 24.8581 17.9014 24.6961 18.0349 24.4726H18.0509V25.0011H19.1309V19.2891H17.9949V21.3691H17.9789C17.8526 21.1681 17.6706 21.0083 17.4549 20.9091C17.2361 20.8057 16.997 20.7524 16.7549 20.7531C16.4509 20.7531 16.1844 20.8131 15.9549 20.9331ZM17.5229 21.7211C17.6454 21.7956 17.7454 21.8931 17.8229 22.0131C17.8999 22.1326 17.9549 22.2716 17.9869 22.4291C18.0189 22.5861 18.0349 22.7506 18.0349 22.9206C18.0349 23.0916 18.0189 23.2566 17.9869 23.4166C17.9583 23.5673 17.9042 23.712 17.8269 23.8446C17.7519 23.9696 17.6524 24.0696 17.5269 24.1446C17.4014 24.2191 17.2454 24.2566 17.0589 24.2566C16.8829 24.2566 16.7319 24.2181 16.6069 24.1411C16.4816 24.0642 16.3751 23.9603 16.2949 23.8371C16.2098 23.7063 16.1489 23.5613 16.1149 23.4091C16.0779 23.2518 16.0591 23.0907 16.0589 22.9291C16.0589 22.7581 16.0759 22.5941 16.1109 22.4371C16.1454 22.2796 16.2014 22.1396 16.2789 22.0171C16.3559 21.8946 16.4589 21.7961 16.5869 21.7211C16.7149 21.6466 16.8724 21.6086 17.0589 21.6086C17.2454 21.6091 17.3999 21.6466 17.5229 21.7211ZM20.2349 25.0011H21.3709V21.6251H22.1549V20.8646H21.3709V20.6171C21.3709 20.4461 21.4044 20.3251 21.4709 20.2526C21.5374 20.1811 21.6479 20.1446 21.8029 20.1446C21.9469 20.1446 22.0854 20.1526 22.2189 20.1686V19.3211C22.1229 19.3161 22.0239 19.3096 21.9229 19.3011C21.8218 19.2932 21.7204 19.2894 21.6189 19.2896C21.1549 19.2896 20.8079 19.4066 20.5789 19.6416C20.3499 19.8761 20.2349 20.1771 20.2349 20.5456V20.8656H19.5549V21.6261H20.2349V25.0011Z" fill="#333333"/>
<path id="Vector_2" d="M18 1H6V31H26V9L18 1ZM25 30H7V2H17V10H25V30Z" fill="#333333"/>
</g>
</svg>
