<svg width="20" height="20" viewBox="0 0 20 20" fill="none" xmlns="http://www.w3.org/2000/svg">
<g id="noun-new-5396138 1" clip-path="url(#clip0_14430_632)">
<g id="Group">
<path id="Vector" d="M7.92629 5.17248C7.52982 4.95024 7.16217 4.67954 6.83347 4.36801C6.16958 3.73836 5.64147 2.93283 5.26405 1.97413L4.71464 0.578125L4.16511 1.97424C3.7877 2.93307 3.2597 3.7386 2.59582 4.36801C2.26558 4.68107 1.89806 4.95201 1.50382 5.17318L0.585938 5.68824L1.50382 6.2033C1.89829 6.42471 2.2657 6.69554 2.5957 7.00848C3.25958 7.63777 3.78758 8.44318 4.16511 9.40212L4.71464 10.7982L5.26417 9.40212C5.64158 8.44342 6.16958 7.63789 6.83358 7.00836C7.1637 6.69542 7.53147 6.42436 7.92652 6.20271L8.845 5.68754L7.92629 5.17248Z" fill="#0A65CC"/>
<path id="Vector_2" d="M17.5719 11.2839C17.169 11.0579 16.7955 10.783 16.4618 10.4668C15.7804 9.82065 15.2364 8.98912 14.8455 7.9956L13.7463 5.20312L12.6472 7.9956C12.2562 8.98901 11.7124 9.82054 11.0308 10.4668C10.6955 10.7847 10.3223 11.0598 9.9217 11.2845L8.08594 12.3147L9.92182 13.3447C10.3225 13.5695 10.6957 13.8447 11.0308 14.1624C11.7124 14.8088 12.2563 15.6402 12.6473 16.6336L13.7464 19.4261L14.8456 16.6336C15.2366 15.6401 15.7805 14.8087 16.4622 14.1623C16.7976 13.8443 17.1711 13.5689 17.5721 13.3441L19.4086 12.3138L17.5719 11.2839Z" fill="#0A65CC"/>
</g>
</g>
<defs>
<clipPath id="clip0_14430_632">
<rect width="20" height="20" fill="white"/>
</clipPath>
</defs>
</svg>
