<svg width="53" height="18" viewBox="0 0 53 18" fill="none" xmlns="http://www.w3.org/2000/svg">
<path d="M22.53 17.1847H18.2724L20.9333 0.831276H25.1914L22.53 17.1847ZM14.6906 0.831276L10.6315 12.0793L10.1512 9.65717L10.1516 9.65805L8.71899 2.30372C8.71899 2.30372 8.54576 0.831276 6.69931 0.831276H-0.0111035L-0.0898438 1.10818C-0.0898438 1.10818 1.96221 1.53512 4.36379 2.97738L8.06283 17.1852H12.499L19.2728 0.831276H14.6906ZM48.1792 17.1847H52.0886L48.6801 0.830838H45.2575C43.677 0.830838 43.292 2.04956 43.292 2.04956L36.9421 17.1847H41.3804L42.268 14.7556H47.6805L48.1792 17.1847ZM43.4941 11.4L45.7312 5.28009L46.9898 11.4H43.4941ZM37.275 4.76391L37.8826 1.2521C37.8826 1.2521 36.0077 0.539062 34.0532 0.539062C31.9403 0.539062 26.9228 1.46251 26.9228 5.95289C26.9228 10.1777 32.8117 10.2302 32.8117 12.4494C32.8117 14.6685 27.5296 14.2709 25.7864 12.8715L25.1534 16.5434C25.1534 16.5434 27.0545 17.4669 29.9592 17.4669C32.8647 17.4669 37.2479 15.9625 37.2479 11.868C37.2479 7.61605 31.306 7.22017 31.306 5.37152C31.3065 3.52244 35.453 3.75997 37.275 4.76391Z" fill="#34A853"/>
</svg>
