<svg width="24" height="24" viewBox="0 0 24 24" fill="none" xmlns="http://www.w3.org/2000/svg">
<g id="noun-billing-6447203 1">
<g id="Group">
<g id="Group_2">
<g id="Group_3">
<path id="Vector" fill-rule="evenodd" clip-rule="evenodd" d="M5.64488 15.742H3.4858C2.54432 15.742 1.78125 16.5053 1.78125 17.4465C1.78125 18.6198 1.78125 20.44 1.78125 21.6133C1.78125 22.0653 1.9608 22.4988 2.2804 22.8187C2.60029 23.1383 3.03381 23.3178 3.4858 23.3178H19.7364C20.3978 23.3178 21.0341 23.0545 21.5029 22.5857C21.9716 22.117 22.2358 21.4812 22.2358 20.8184C22.2358 16.8232 22.2358 7.75788 22.2358 4.56783C22.2358 3.62635 21.4716 2.86328 20.5313 2.86328C17.6727 2.86328 10.208 2.86328 7.34943 2.86328C6.40795 2.86328 5.64488 3.62635 5.64488 4.56783V15.742ZM19.7352 22.1815H19.7364C20.0995 22.1815 20.446 22.0377 20.7017 21.7823C20.9574 21.5266 21.0994 21.1798 21.0994 20.8184V4.56783C21.0994 4.25391 20.8466 3.99964 20.5313 3.99964H7.34943C7.03551 3.99964 6.78125 4.25391 6.78125 4.56783V15.742H16.6676C17.6091 15.742 18.3722 16.5053 18.3722 17.4465C18.3722 18.3786 18.3722 19.7187 18.3722 20.8184C18.3722 21.18 18.5159 21.5266 18.7713 21.7823C19.027 22.0377 19.3736 22.1815 19.7352 22.1815ZM17.6403 22.1815C17.3784 21.7789 17.2358 21.3059 17.2358 20.8184V17.4465C17.2358 17.1329 16.9816 16.8783 16.6676 16.8783H3.4858C3.17188 16.8783 2.91761 17.1329 2.91761 17.4465V21.6133C2.91761 21.7638 2.97756 21.9084 3.08409 22.015C3.19063 22.1215 3.33523 22.1815 3.4858 22.1815H17.6403ZM10.0767 13.6587H17.804C18.1176 13.6587 18.3722 13.4042 18.3722 13.0906C18.3722 12.7769 18.1176 12.5224 17.804 12.5224H10.0767C9.76308 12.5224 9.50853 12.7769 9.50853 13.0906C9.50853 13.4042 9.76308 13.6587 10.0767 13.6587ZM10.0767 10.4391H17.804C18.1176 10.4391 18.3722 10.1843 18.3722 9.87095C18.3722 9.55731 18.1176 9.30277 17.804 9.30277H10.0767C9.76308 9.30277 9.50853 9.55731 9.50853 9.87095C9.50853 10.1843 9.76308 10.4391 10.0767 10.4391ZM10.0767 7.21925H17.804C18.1176 7.21925 18.3722 6.9647 18.3722 6.65107C18.3722 6.33771 18.1176 6.08289 17.804 6.08289H10.0767C9.76308 6.08289 9.50853 6.33771 9.50853 6.65107C9.50853 6.9647 9.76308 7.21925 10.0767 7.21925Z" fill="#333333"/>
</g>
</g>
</g>
</g>
</svg>
