<svg width="24" height="24" viewBox="0 0 24 24" fill="none" xmlns="http://www.w3.org/2000/svg">
<g id="Video Interview">
<path id="Vector" d="M0.75 18.375C0.75 18.4745 0.789509 18.5698 0.859835 18.6402C0.930161 18.7105 1.02554 18.75 1.125 18.75H22.875C22.9745 18.75 23.0698 18.7105 23.1402 18.6402C23.2105 18.5698 23.25 18.4745 23.25 18.375C23.25 18.2755 23.2105 18.1802 23.1402 18.1098C23.0698 18.0395 22.9745 18 22.875 18H20.7915C20.9205 17.7788 21 17.5245 21 17.25V15.375C21 15.2755 20.9605 15.1802 20.8902 15.1098C20.8198 15.0395 20.7245 15 20.625 15H19.5V5.625C19.5 5.52554 19.4605 5.43016 19.3902 5.35984C19.3198 5.28951 19.2245 5.25 19.125 5.25H4.875C4.77554 5.25 4.68016 5.28951 4.60984 5.35984C4.53951 5.43016 4.5 5.52554 4.5 5.625V15H3.375C3.27554 15 3.18016 15.0395 3.10984 15.1098C3.03951 15.1802 3 15.2755 3 15.375V17.25C3 17.5245 3.0795 17.7788 3.2085 18H1.125C1.02554 18 0.930161 18.0395 0.859835 18.1098C0.789509 18.1802 0.75 18.2755 0.75 18.375ZM5.25 6H18.75V15H15.75V14.3123C15.7491 13.9869 15.6493 13.6696 15.464 13.4022C15.2786 13.1349 15.0163 12.9302 14.712 12.8152L13.3005 12.2858V11.6483C13.4887 11.4713 13.6387 11.2577 13.7414 11.0207C13.8441 10.7836 13.8972 10.5281 13.8975 10.2697V9.483L14.253 8.26125C14.2797 8.11567 14.2769 7.96623 14.245 7.82171C14.2131 7.6772 14.1525 7.54053 14.067 7.41975C13.9823 7.29874 13.8742 7.19591 13.7492 7.11733C13.6241 7.03876 13.4845 6.98603 13.3387 6.96225L11.5935 6.67125C11.3263 6.62648 11.052 6.68216 10.8234 6.82755C10.5947 6.97294 10.428 7.19777 10.3553 7.45875C10.191 7.51875 10.0447 7.62225 9.9315 7.76175C9.7455 7.99125 9.6735 8.289 9.75375 8.63775L10.0868 9.4815V10.2697C10.0868 10.8202 10.3252 11.313 10.6995 11.6617V12.2865L9.28875 12.8152C8.98426 12.9301 8.72186 13.1347 8.53635 13.4021C8.35084 13.6694 8.25097 13.9868 8.25 14.3123V15H5.25V6ZM13.875 15H9V14.3123C9 13.9598 9.22125 13.6402 9.55125 13.5165L10.134 13.2983C10.608 13.8248 11.2747 14.145 11.9925 14.145C12.7125 14.145 13.3807 13.8232 13.8547 13.2945L14.4487 13.5173C14.778 13.6403 14.9993 13.9598 14.9993 14.3123V15H13.875ZM13.2682 15.75L12.8932 16.5H11.106L10.731 15.75H13.2682ZM10.836 9.717L11.385 9.261H12.6143L13.1475 9.7035V10.2697C13.1475 10.9072 12.6293 11.4255 11.9918 11.4255C11.3543 11.4255 10.836 10.9072 10.836 10.2697V9.717ZM10.6567 8.8905L10.4685 8.42175C10.4611 8.38885 10.4614 8.35469 10.4693 8.32191C10.4773 8.28914 10.4926 8.25863 10.5143 8.23275C10.535 8.20679 10.5614 8.18588 10.5914 8.17159C10.6214 8.1573 10.6543 8.15 10.6875 8.15025C10.8945 8.15025 11.0625 7.9635 11.0625 7.7565C11.0623 7.70558 11.0733 7.65523 11.0946 7.60899C11.116 7.56276 11.1472 7.52176 11.1861 7.48887C11.2249 7.45599 11.2706 7.43203 11.3197 7.41866C11.3688 7.40529 11.4203 7.40285 11.4705 7.4115L13.2158 7.7025C13.3052 7.7189 13.3857 7.76712 13.4424 7.83826C13.499 7.9094 13.528 7.99864 13.524 8.0895L13.2997 8.85525L12.9893 8.59725C12.9219 8.54167 12.8373 8.51119 12.75 8.511H11.25C11.1627 8.51119 11.0781 8.54167 11.0107 8.59725L10.6567 8.8905ZM12.7943 12.8962L13.0867 13.0057C12.7766 13.2551 12.3912 13.3923 11.9933 13.395C11.592 13.395 11.2133 13.251 10.9058 13.0087L11.2065 12.8955C11.2779 12.8687 11.3394 12.8207 11.3828 12.758C11.4262 12.6952 11.4495 12.6208 11.4495 12.5445V12.0855C11.6227 12.1373 11.8027 12.174 11.9925 12.174C12.1882 12.174 12.3735 12.1357 12.5513 12.081V12.5445C12.5507 12.621 12.5737 12.6958 12.6172 12.7588C12.6607 12.8217 12.7225 12.8697 12.7943 12.8962ZM3.75 17.25V15.75H9.89325L10.5398 17.043C10.5709 17.1052 10.6188 17.1575 10.678 17.1941C10.7372 17.2306 10.8054 17.25 10.875 17.25H13.125C13.1946 17.25 13.2628 17.2306 13.322 17.1941C13.3812 17.1575 13.4291 17.1052 13.4603 17.043L14.1068 15.75H20.25V17.25C20.25 17.4489 20.171 17.6397 20.0303 17.7803C19.8897 17.921 19.6989 18 19.5 18H4.5C4.30109 18 4.11032 17.921 3.96967 17.7803C3.82902 17.6397 3.75 17.4489 3.75 17.25Z" fill="#333333" fill-opacity="0.5"/>
</g>
</svg>
