<svg width="24" height="24" viewBox="0 0 24 24" fill="none" xmlns="http://www.w3.org/2000/svg">
<g id="noun-candidates-6042066 1" clip-path="url(#clip0_14331_2262)">
<g id="Vector">
<path d="M5.71593 10.593C7.23172 10.593 8.46456 9.36012 8.46456 7.84433C8.46456 6.32854 7.23172 5.0957 5.71593 5.0957C4.20014 5.0957 2.9673 6.32854 2.9673 7.84433C2.9673 9.36012 4.20014 10.593 5.71593 10.593ZM5.71593 5.75002C6.87045 5.75002 7.80772 6.68981 7.80772 7.84433C7.80772 8.99886 6.87045 9.93865 5.71593 9.93865C4.5614 9.93865 3.62414 8.99886 3.62414 7.84433C3.62414 6.68981 4.5614 5.75002 5.71593 5.75002ZM18.2818 10.593C19.7976 10.593 21.0305 9.36012 21.0305 7.84433C21.0305 6.32854 19.7976 5.0957 18.2818 5.0957C16.766 5.0957 15.5332 6.32854 15.5332 7.84433C15.5332 9.36012 16.766 10.593 18.2818 10.593ZM18.2818 5.75002C19.4363 5.75002 20.3736 6.68981 20.3736 7.84433C20.3736 8.99886 19.4338 9.93865 18.2818 9.93865C17.1298 9.93865 16.19 8.99886 16.19 7.84433C16.19 6.68981 17.1298 5.75002 18.2818 5.75002ZM18.2818 11.5075C17.193 11.5075 16.1345 11.8182 15.2199 12.4043C14.8182 12.662 14.4545 12.9728 14.1286 13.3239C13.4692 13.0561 12.7517 12.9071 11.9989 12.9071C11.246 12.9071 10.5286 13.0561 9.87172 13.3239C8.80056 12.1669 7.29993 11.5075 5.71593 11.5075C2.58835 11.5075 0.046875 14.0515 0.046875 17.1791C0.046875 17.361 0.193401 17.5075 0.375296 17.5075H6.4334C6.36772 17.8536 6.32982 18.2123 6.32982 18.5787C6.32982 18.7605 6.47635 18.9071 6.65824 18.9071H17.342C17.5239 18.9071 17.6705 18.7605 17.6705 18.5787C17.6705 18.2123 17.6351 17.8536 17.5669 17.5075H23.625C23.8069 17.5075 23.9534 17.361 23.9534 17.1791C23.9534 14.0515 21.4094 11.5075 18.2843 11.5075H18.2818ZM0.713822 16.8506C0.883085 14.2359 3.0633 12.1618 5.71593 12.1618C7.0473 12.1618 8.31045 12.6898 9.24772 13.6195C7.99972 14.3142 7.04224 15.4662 6.60014 16.8481H0.713822V16.8506ZM6.99677 18.2502C7.16603 15.6355 9.34624 13.5614 11.9989 13.5614C14.6515 13.5614 16.8317 15.6355 17.001 18.2502H6.99677ZM17.4001 16.8506C16.958 15.4688 15.998 14.3168 14.75 13.622C15.0027 13.3719 15.278 13.1471 15.5761 12.9576C16.382 12.4397 17.3193 12.1643 18.2818 12.1643C20.937 12.1643 23.1147 14.2384 23.2839 16.8532H17.3976L17.4001 16.8506ZM11.9989 11.9925C13.5147 11.9925 14.7475 10.7597 14.7475 9.24391C14.7475 7.72812 13.5147 6.49528 11.9989 6.49528C10.4831 6.49528 9.25024 7.72812 9.25024 9.24391C9.25024 10.7597 10.4831 11.9925 11.9989 11.9925ZM11.9989 7.1496C13.1534 7.1496 14.0907 8.08939 14.0907 9.24391C14.0907 10.3984 13.1534 11.3382 11.9989 11.3382C10.8443 11.3382 9.90709 10.3984 9.90709 9.24391C9.90709 8.08939 10.8443 7.1496 11.9989 7.1496Z" fill="#333333" fill-opacity="0.5"/>
<path d="M15.1929 12.3622L15.1929 12.3622C14.797 12.6162 14.4379 12.921 14.1154 13.2647C13.4591 13.0027 12.7462 12.8571 11.9989 12.8571C11.2516 12.8571 10.5388 13.0027 9.88487 13.2647C8.80589 12.1131 7.30233 11.4575 5.71593 11.4575C2.5607 11.4575 -0.003125 14.0239 -0.003125 17.1791C-0.003125 17.3886 0.165787 17.5575 0.375296 17.5575H6.37331C6.31387 17.888 6.27982 18.2298 6.27982 18.5787C6.27982 18.7882 6.44873 18.9571 6.65824 18.9571H17.342C17.5515 18.9571 17.7205 18.7882 17.7205 18.5787C17.7205 18.2301 17.6887 17.8883 17.6273 17.5575H23.625C23.8345 17.5575 24.0034 17.3886 24.0034 17.1791C24.0034 14.0239 21.437 11.4575 18.2843 11.4575H18.2818C17.1834 11.4575 16.1155 11.771 15.1929 12.3622ZM6.56376 16.7981H0.767641C0.962357 14.2358 3.10874 12.2118 5.71593 12.2118C7.01169 12.2118 8.24222 12.717 9.16518 13.6087C7.94509 14.3067 7.00761 15.4409 6.56376 16.7981ZM18.2818 12.2143C20.8924 12.2143 23.0368 14.2397 23.2303 16.8032H17.4373C16.9938 15.4448 16.0535 14.3097 14.8326 13.6112C15.0699 13.3819 15.3267 13.1754 15.603 12.9998L15.6032 12.9997C16.401 12.487 17.3289 12.2143 18.2818 12.2143ZM5.71593 10.643C7.25933 10.643 8.51456 9.38774 8.51456 7.84433C8.51456 6.30093 7.25933 5.0457 5.71593 5.0457C4.17252 5.0457 2.9173 6.30093 2.9173 7.84433C2.9173 9.38774 4.17252 10.643 5.71593 10.643ZM5.71593 5.80002C6.84276 5.80002 7.75772 6.71734 7.75772 7.84433C7.75772 8.97133 6.84276 9.88865 5.71593 9.88865C4.58909 9.88865 3.67414 8.97133 3.67414 7.84433C3.67414 6.71734 4.58909 5.80002 5.71593 5.80002ZM18.2818 10.643C19.8252 10.643 21.0805 9.38774 21.0805 7.84433C21.0805 6.30093 19.8252 5.0457 18.2818 5.0457C16.7384 5.0457 15.4832 6.30093 15.4832 7.84433C15.4832 9.38774 16.7384 10.643 18.2818 10.643ZM18.2818 5.80002C19.4087 5.80002 20.3236 6.71734 20.3236 7.84433C20.3236 8.97129 19.4062 9.88865 18.2818 9.88865C17.1575 9.88865 16.24 8.97129 16.24 7.84433C16.24 6.71738 17.1575 5.80002 18.2818 5.80002ZM7.0504 18.2002C7.24389 15.6367 9.39084 13.6114 11.9989 13.6114C14.6069 13.6114 16.7539 15.6367 16.9474 18.2002H7.0504ZM11.9989 12.0425C13.5423 12.0425 14.7975 10.7873 14.7975 9.24391C14.7975 7.70051 13.5423 6.44528 11.9989 6.44528C10.4555 6.44528 9.20024 7.70051 9.20024 9.24391C9.20024 10.7873 10.4555 12.0425 11.9989 12.0425ZM11.9989 7.1996C13.1257 7.1996 14.0407 8.11692 14.0407 9.24391C14.0407 10.3709 13.1257 11.2882 11.9989 11.2882C10.872 11.2882 9.95709 10.3709 9.95709 9.24391C9.95709 8.11692 10.872 7.1996 11.9989 7.1996Z" stroke="#333333" stroke-opacity="0.5" stroke-width="0.1"/>
</g>
</g>
<defs>
<clipPath id="clip0_14331_2262">
<rect width="24" height="24" fill="white"/>
</clipPath>
</defs>
</svg>
