<svg width="24" height="24" viewBox="0 0 24 24" fill="none" xmlns="http://www.w3.org/2000/svg">
<g id="noun-job-post-6107142 1" clip-path="url(#clip0_14331_2226)">
<path id="Vector" d="M21.2 0C20.5274 0.00128638 19.8777 0.244437 19.3695 0.685056C18.8613 1.12567 18.5286 1.73437 18.432 2.4H1.2C0.88174 2.4 0.576516 2.52643 0.351472 2.75147C0.126428 2.97652 0 3.28174 0 3.6L0 19.9032C0.00105098 20.3273 0.169536 20.7339 0.4688 21.0344L2.9656 23.5312C3.11386 23.6803 3.29021 23.7985 3.48445 23.8789C3.67868 23.9594 3.88695 24.0006 4.0972 24H20.4C20.7183 24 21.0235 23.8736 21.2485 23.6485C21.4736 23.4235 21.6 23.1183 21.6 22.8V5.568C22.2961 5.46198 22.9268 5.09757 23.3662 4.54738C23.8057 3.9972 24.0217 3.30163 23.9712 2.59928C23.9208 1.89694 23.6076 1.23939 23.094 0.757672C22.5804 0.27595 21.9041 0.00542301 21.2 0ZM1.3656 20.8H2.8C2.90609 20.8 3.00783 20.8421 3.08284 20.9172C3.15786 20.9922 3.2 21.0939 3.2 21.2V22.6344L1.3656 20.8ZM20.4 23.2H4.0972C4.06463 23.1988 4.03217 23.1956 4 23.1904V21.2C4 20.8817 3.87357 20.5765 3.64853 20.3515C3.42348 20.1264 3.11826 20 2.8 20H0.8096C0.804423 19.968 0.801217 19.9356 0.8 19.9032V3.6C0.8 3.49391 0.842143 3.39217 0.917157 3.31716C0.992172 3.24214 1.09391 3.2 1.2 3.2H18.432C18.5188 3.79718 18.7963 4.35032 19.223 4.77703C19.6497 5.20374 20.2028 5.48117 20.8 5.568V22.8C20.8 22.9061 20.7579 23.0078 20.6828 23.0828C20.6078 23.1579 20.5061 23.2 20.4 23.2ZM21.2 4.8C20.8044 4.8 20.4178 4.6827 20.0889 4.46294C19.76 4.24318 19.5036 3.93082 19.3522 3.56537C19.2009 3.19991 19.1613 2.79778 19.2384 2.40982C19.3156 2.02186 19.5061 1.66549 19.7858 1.38579C20.0655 1.10608 20.4219 0.9156 20.8098 0.838429C21.1978 0.761259 21.5999 0.800866 21.9654 0.952241C22.3308 1.10362 22.6432 1.35996 22.8629 1.68886C23.0827 2.01776 23.2 2.40444 23.2 2.8C23.1994 3.33024 22.9884 3.83858 22.6135 4.21351C22.2386 4.58845 21.7302 4.79936 21.2 4.8Z" fill="#333333" fill-opacity="0.5"/>
<path id="Vector_2" d="M7.20156 13.6H14.4016C14.8259 13.6 15.2329 13.4314 15.5329 13.1314C15.833 12.8313 16.0016 12.4243 16.0016 12V7.2C16.0016 6.77565 15.833 6.36869 15.5329 6.06863C15.2329 5.76857 14.8259 5.6 14.4016 5.6H13.2016V5.2C13.2016 4.88174 13.0751 4.57652 12.8501 4.35147C12.625 4.12643 12.3198 4 12.0016 4H9.60156C9.2833 4 8.97808 4.12643 8.75303 4.35147C8.52799 4.57652 8.40156 4.88174 8.40156 5.2V5.6H7.20156C6.77722 5.6 6.37025 5.76857 6.07019 6.06863C5.77013 6.36869 5.60156 6.77565 5.60156 7.2V12C5.60156 12.4243 5.77013 12.8313 6.07019 13.1314C6.37025 13.4314 6.77722 13.6 7.20156 13.6ZM14.4016 12.8H7.20156C6.98939 12.8 6.78591 12.7157 6.63588 12.5657C6.48585 12.4157 6.40156 12.2122 6.40156 12V9.3776C6.6437 9.52157 6.91986 9.59834 7.20156 9.6H9.20156V10C9.20156 10.3183 9.32799 10.6235 9.55303 10.8485C9.77808 11.0736 10.0833 11.2 10.4016 11.2H11.2016C11.5198 11.2 11.825 11.0736 12.0501 10.8485C12.2751 10.6235 12.4016 10.3183 12.4016 10V9.6H14.4016C14.6833 9.59834 14.9594 9.52157 15.2016 9.3776V12C15.2016 12.2122 15.1173 12.4157 14.9672 12.5657C14.8172 12.7157 14.6137 12.8 14.4016 12.8ZM10.0016 9.6H11.6016V10C11.6016 10.1061 11.5594 10.2078 11.4844 10.2828C11.4094 10.3579 11.3076 10.4 11.2016 10.4H10.4016C10.2955 10.4 10.1937 10.3579 10.1187 10.2828C10.0437 10.2078 10.0016 10.1061 10.0016 10V9.6ZM9.20156 5.2C9.20156 5.09391 9.2437 4.99217 9.31872 4.91716C9.39373 4.84214 9.49548 4.8 9.60156 4.8H12.0016C12.1076 4.8 12.2094 4.84214 12.2844 4.91716C12.3594 4.99217 12.4016 5.09391 12.4016 5.2V5.6H9.20156V5.2ZM6.40156 7.2C6.40156 6.98783 6.48585 6.78434 6.63588 6.63431C6.78591 6.48429 6.98939 6.4 7.20156 6.4H14.4016C14.6137 6.4 14.8172 6.48429 14.9672 6.63431C15.1173 6.78434 15.2016 6.98783 15.2016 7.2V8C15.2016 8.21217 15.1173 8.41566 14.9672 8.56569C14.8172 8.71571 14.6137 8.8 14.4016 8.8H7.20156C6.98939 8.8 6.78591 8.71571 6.63588 8.56569C6.48585 8.41566 6.40156 8.21217 6.40156 8V7.2Z" fill="#333333" fill-opacity="0.5"/>
<path id="Vector_3" d="M18.7984 16.4004H2.79844C2.69235 16.4004 2.59061 16.4425 2.51559 16.5175C2.44058 16.5926 2.39844 16.6943 2.39844 16.8004C2.39844 16.9065 2.44058 17.0082 2.51559 17.0832C2.59061 17.1582 2.69235 17.2004 2.79844 17.2004H18.7984C18.9045 17.2004 19.0063 17.1582 19.0813 17.0832C19.1563 17.0082 19.1984 16.9065 19.1984 16.8004C19.1984 16.6943 19.1563 16.5926 19.0813 16.5175C19.0063 16.4425 18.9045 16.4004 18.7984 16.4004Z" fill="#333333" fill-opacity="0.5"/>
<path id="Vector_4" d="M18.7984 18.4004H2.79844C2.69235 18.4004 2.59061 18.4425 2.51559 18.5175C2.44058 18.5926 2.39844 18.6943 2.39844 18.8004C2.39844 18.9065 2.44058 19.0082 2.51559 19.0832C2.59061 19.1582 2.69235 19.2004 2.79844 19.2004H18.7984C18.9045 19.2004 19.0063 19.1582 19.0813 19.0832C19.1563 19.0082 19.1984 18.9065 19.1984 18.8004C19.1984 18.6943 19.1563 18.5926 19.0813 18.5175C19.0063 18.4425 18.9045 18.4004 18.7984 18.4004Z" fill="#333333" fill-opacity="0.5"/>
</g>
<defs>
<clipPath id="clip0_14331_2226">
<rect width="24" height="24" fill="white"/>
</clipPath>
</defs>
</svg>
