<svg width="24" height="24" viewBox="0 0 24 24" fill="none" xmlns="http://www.w3.org/2000/svg">
<g id="Bookmark">
<path id="Vector" d="M18.8583 3.42522H5.14397V20.0592L10.8092 14.6217L12.0011 13.4833L13.1931 14.6217L18.8583 20.0592V3.42522ZM19.019 1.71094C19.2243 1.71094 19.4208 1.75112 19.6083 1.83147C19.9029 1.94754 20.1373 2.13058 20.3114 2.38058C20.4855 2.63058 20.5725 2.90737 20.5725 3.21094V20.4743C20.5725 20.7779 20.4855 21.0547 20.3114 21.3047C20.1373 21.5547 19.9029 21.7377 19.6083 21.8538C19.4386 21.9252 19.2422 21.9609 19.019 21.9609C18.5904 21.9609 18.2199 21.8181 17.9074 21.5324L12.0011 15.8538L6.09487 21.5324C5.77344 21.827 5.4029 21.9743 4.98326 21.9743C4.7779 21.9743 4.58147 21.9342 4.39397 21.8538C4.09933 21.7377 3.86496 21.5547 3.69085 21.3047C3.51674 21.0547 3.42969 20.7779 3.42969 20.4743V3.21094C3.42969 2.90737 3.51674 2.63058 3.69085 2.38058C3.86496 2.13058 4.09933 1.94754 4.39397 1.83147C4.58147 1.75112 4.7779 1.71094 4.98326 1.71094H19.019Z" fill="#333333" fill-opacity="0.5"/>
</g>
</svg>
