<svg width="24" height="24" viewBox="0 0 24 24" fill="none" xmlns="http://www.w3.org/2000/svg">
<g id="noun-screening-6588678 2">
<path id="Vector" fill-rule="evenodd" clip-rule="evenodd" d="M19.3044 7.54309L19.3048 11.5528C19.3048 12.0827 19.0896 12.5512 18.6889 12.8977L13.711 17.2033V20.2872C13.711 20.3945 13.6557 20.489 13.5721 20.5436L10.7752 22.7372C10.575 22.8936 10.2811 22.7496 10.2813 22.497V17.2228L5.30113 12.8976C4.90187 12.5509 4.6875 12.0837 4.6875 11.5546L4.68776 7.54635C4.703 6.28361 9.0704 5.98832 10.424 5.92856C10.7243 4.17452 13.2686 4.178 13.5682 5.92856C14.936 5.98894 19.2661 6.27994 19.3044 7.54309ZM18.6927 11.5528V8.28716C16.3678 9.53941 7.62452 9.53945 5.29969 8.28721V11.5546C5.29969 11.9093 5.43239 12.2034 5.70044 12.4361L10.7693 16.8383C10.8447 16.894 10.8935 16.9836 10.8935 17.0845V21.8693L13.0988 20.1397L13.0998 17.0646C13.0998 16.9791 13.1356 16.8942 13.2052 16.8338L18.2896 12.4362C18.559 12.2032 18.6927 11.9088 18.6927 11.5528ZM17.3177 6.9889C16.369 6.76705 15.0559 6.6055 13.555 6.53868C13.1944 8.20361 10.7974 8.20076 10.4372 6.53868C8.93636 6.6055 7.62323 6.76705 6.67453 6.9889C5.81591 7.18973 5.29969 7.39193 5.29969 7.55888C5.29969 7.76633 5.98852 8.00384 7.10204 8.22001C9.79592 8.74301 14.1964 8.74301 16.8903 8.22001C18.0038 8.00384 18.6926 7.76633 18.6926 7.55888C18.6926 7.39193 18.1764 7.18973 17.3177 6.9889ZM7.20611 2.11141C6.32653 2.11141 5.61102 2.82637 5.61102 3.70652C5.61102 4.58595 6.32612 5.30158 7.20611 5.30158C8.08609 5.30158 8.80122 4.58657 8.80122 3.70652C8.80122 2.82579 8.08684 2.11141 7.20611 2.11141ZM7.20611 2.7236C6.66268 2.7236 6.22319 3.16258 6.22319 3.70652C6.22319 4.25045 6.66241 4.68939 7.20611 4.68939C7.7498 4.68939 8.18903 4.25007 8.18903 3.70652C8.18903 3.16359 7.74904 2.7236 7.20611 2.7236ZM11.9961 5.21662C11.4532 5.21662 11.0133 5.65656 11.0133 6.19949C11.0133 6.74314 11.4526 7.18241 11.9961 7.18241C12.5391 7.18241 12.979 6.74242 12.979 6.19949C12.979 5.6558 12.5398 5.21662 11.9961 5.21662ZM16.0217 1.20312C15.1409 1.20312 14.4266 1.91744 14.4266 2.79819C14.4266 3.67793 15.1413 4.39328 16.0217 4.39328C16.9015 4.39328 17.6168 3.67825 17.6168 2.79819C17.6168 1.91873 16.9017 1.20312 16.0217 1.20312ZM16.0217 1.81532C16.5653 1.81532 17.0046 2.25447 17.0046 2.79819C17.0046 3.34191 16.5654 3.78111 16.0217 3.78111C15.478 3.78111 15.0388 3.34153 15.0388 2.79819C15.0388 2.25526 15.4788 1.81532 16.0217 1.81532Z" fill="#333333" fill-opacity="0.5" stroke="#333333" stroke-opacity="0.5" stroke-width="0.5"/>
</g>
</svg>
