<svg width="24" height="24" viewBox="0 0 24 24" fill="none" xmlns="http://www.w3.org/2000/svg">
<g id="noun-search-cv-912259 1">
<g id="Group">
<g id="Group_2">
<g id="Group_3">
<path id="Vector" d="M7.44575 19.8233H5.57375C5.28575 19.8233 5.09375 19.6313 5.09375 19.3433C5.09375 19.0553 5.28575 18.8633 5.57375 18.8633H7.44575C7.73375 18.8633 7.92575 19.0553 7.92575 19.3433C7.92575 19.6313 7.73375 19.8233 7.44575 19.8233Z" fill="#333333" fill-opacity="0.5"/>
</g>
<g id="Group_4">
<path id="Vector_2" d="M21.8407 20.7352L20.5447 19.4392V2.63922C20.5447 1.82322 19.9207 1.19922 19.1047 1.19922H3.74469C2.92869 1.19922 2.30469 1.82322 2.30469 2.63922V21.7432C2.30469 22.5592 2.92869 23.1832 3.74469 23.1832H19.1047C19.4407 23.1832 19.7287 23.0872 19.9687 22.8952C20.2087 23.0872 20.4967 23.1832 20.8327 23.1832C21.2167 23.1832 21.6007 23.0392 21.8407 22.7512C22.1287 22.4632 22.2727 22.1272 22.2727 21.7432C22.2727 21.3592 22.1287 21.0232 21.8407 20.7352ZM19.1527 22.2232H3.79269C3.55269 22.2232 3.31269 22.0312 3.31269 21.7432V2.63922C3.31269 2.35122 3.55269 2.15922 3.79269 2.15922H19.1527C19.3927 2.15922 19.6327 2.35122 19.6327 2.63922V18.4792L17.9527 16.7992C18.4807 15.9352 18.7687 14.9272 18.7687 13.8712C18.7687 10.7032 16.1767 8.11122 13.0087 8.11122C12.0007 8.11122 11.0407 8.35122 10.2247 8.83122V7.72722C10.2247 7.19922 9.79269 6.76722 9.26469 6.76722H9.12069C9.40869 6.38322 9.60069 5.90322 9.60069 5.37522C9.60069 4.07922 8.54469 3.02322 7.24869 3.02322C5.95269 3.02322 4.89669 4.07922 4.89669 5.37522C4.89669 5.90322 5.08869 6.38322 5.37669 6.76722H5.23269C4.70469 6.76722 4.27269 7.19922 4.27269 7.72722V9.40722C4.27269 9.69522 4.51269 9.88722 4.75269 9.88722C4.99269 9.88722 5.23269 9.69522 5.23269 9.40722V7.72722H7.05669H7.44069H9.21669V9.40722V9.45522C8.20869 10.3192 7.48869 11.5672 7.29669 13.0072H5.52069C5.28069 13.0072 5.04069 13.1992 5.04069 13.4872C5.04069 13.7752 5.28069 13.9672 5.52069 13.9672H7.20069C7.20069 14.3032 7.24869 14.5912 7.29669 14.9272H5.52069C5.28069 14.9272 5.04069 15.1192 5.04069 15.4072C5.04069 15.6952 5.28069 15.8872 5.52069 15.8872H7.58469C7.72869 16.2232 7.87269 16.5592 8.06469 16.8472H5.52069C5.28069 16.8472 5.04069 17.0392 5.04069 17.3272C5.04069 17.6152 5.28069 17.8072 5.52069 17.8072H8.78469C9.84069 18.9112 11.3287 19.5832 12.9607 19.5832C14.0167 19.5832 15.0247 19.2952 15.8887 18.7672L19.2007 22.0792C19.2487 22.2232 19.2007 22.2232 19.1527 22.2232ZM17.8087 13.9192C17.8087 14.8792 17.5207 15.8392 16.9447 16.6552C16.8007 16.8952 16.6087 17.1352 16.3687 17.3272C16.1767 17.5192 15.9367 17.7112 15.6967 17.9032C14.8807 18.4312 13.9687 18.7192 13.0087 18.7192C12.0007 18.7192 11.0887 18.4312 10.3207 17.9032C9.93669 17.6152 9.60069 17.3272 9.26469 16.9432C9.02469 16.6552 8.83269 16.3192 8.64069 15.9832C8.49669 15.6952 8.40069 15.3592 8.30469 15.0232C8.25669 14.7352 8.20869 14.3992 8.16069 14.0632C8.16069 14.0152 8.16069 13.9672 8.16069 13.9192C8.16069 13.6312 8.16069 13.3432 8.20869 13.1032C8.59269 10.8472 10.5607 9.11922 12.9607 9.11922C15.6487 9.11922 17.8087 11.2792 17.8087 13.9192ZM5.85669 5.47122C5.85669 4.70322 6.48069 4.07922 7.24869 4.07922C8.01669 4.07922 8.64069 4.70322 8.64069 5.47122C8.64069 6.23922 8.01669 6.86322 7.24869 6.86322C6.48069 6.86322 5.85669 6.23922 5.85669 5.47122ZM21.1687 22.1272C20.9767 22.3192 20.6887 22.3192 20.5447 22.1752C20.5447 22.1752 20.4967 22.1752 20.4967 22.1272L19.6327 21.2632L16.7527 18.3832C16.7527 18.3832 16.8007 18.3832 16.8007 18.3352C16.8967 18.2392 16.9927 18.1912 17.0887 18.0952C17.1847 17.9992 17.2807 17.9032 17.3287 17.8072L17.3767 17.7592L21.1687 21.5512C21.2647 21.6472 21.3127 21.7432 21.3127 21.8872C21.3127 21.8872 21.2647 22.0312 21.1687 22.1272Z" fill="#333333" fill-opacity="0.5"/>
</g>
<g id="Group_5">
<path id="Vector_3" d="M16.3712 14.4001C16.0832 14.4001 15.8912 14.2081 15.8912 13.9201C15.8912 12.3361 14.5953 11.0401 13.0113 11.0401C12.7232 11.0401 12.5312 10.8481 12.5312 10.5601C12.5312 10.2721 12.7232 10.0801 13.0113 10.0801C15.1233 10.0801 16.8512 11.8081 16.8512 13.9201C16.8512 14.2081 16.6112 14.4001 16.3712 14.4001Z" fill="#333333" fill-opacity="0.5"/>
</g>
</g>
</g>
</g>
</svg>
